<?xml version="1.0" standalone="no"?>
<!DOCTYPE svg PUBLIC "-//W3C//DTD SVG 20010904//EN"
 "http://www.w3.org/TR/2001/REC-SVG-20010904/DTD/svg10.dtd">
<svg version="1.0" xmlns="http://www.w3.org/2000/svg"
 width="256.000000pt" height="256.000000pt" viewBox="0 0 256.000000 256.000000"
 preserveAspectRatio="xMidYMid meet">
<metadata>
Created by potrace 1.11, written by Peter Selinger 2001-2013
</metadata>
<g transform="translate(0.000000,256.000000) scale(0.100000,-0.100000)"
fill="#000000" stroke="none">
<path d="M1195 2299 c-61 -6 -116 -15 -205 -34 -46 -9 -212 -77 -271 -111
l-59 -33 -62 33 c-75 38 -160 63 -246 72 -53 5 -67 3 -84 -13 -27 -24 -81
-133 -103 -208 -25 -84 -25 -248 -1 -336 18 -65 18 -66 -2 -105 -52 -104 -83
-230 -87 -359 -3 -89 1 -126 19 -195 135 -520 795 -848 1466 -729 162 29 382
117 515 207 263 177 413 429 413 693 0 120 -42 292 -95 392 -13 25 -13 35 3
95 17 68 24 209 13 272 -17 97 -56 191 -106 258 -24 33 -27 33 -84 29 -94 -8
-167 -28 -246 -68 l-75 -37 -58 34 c-32 19 -61 34 -64 34 -4 0 -25 9 -49 19
-152 70 -361 105 -532 90z"/>
</g>
</svg>
